<svg xmlns="http://www.w3.org/2000/svg" version="1.1" xmlns:xlink="http://www.w3.org/1999/xlink" xmlns:svgjs="http://svgjs.dev/svgjs" viewBox="0 0 1920 1080"><rect width="1920" height="1080" fill="#a4f1ff"/><g transform="matrix(7.04171909509728e-17,1.15,-1.15,7.04171909509728e-17,1538.2814102172852,-514.8736217498779)"><path d="M0,-1080C-7.254626972642581,-1021.1571130290163,-47.79687004296473,-871.5195120167465,-43.527761835855486,-726.9426781740979C-39.258653628746245,-582.3658443314492,23.07047715656962,-395.29230711390767,25.614649242655446,-212.53899694410848C28.158821328741272,-29.785686774309255,-39.4852214497429,196.15321104021257,-28.262729319340536,369.5771828446974C-17.04023718893817,543.0011546491822,99.78602081997704,698.0705627563258,92.94960202506962,828.0048338828004C86.1131832301622,957.9391050092751,-41.82350904734267,1020.2650769965028,-69.28124208878504,1149.1828096035451C-96.7389751302274,1278.1005422105875,-83.34366990504874,1433.041697792312,-71.79679622358456,1601.5112295250547C-60.249922542120395,1769.9807612577972,-11.96613270393076,2066.918538254176,0,2160L 1920 2160 L 1920 -1080 Z" fill="url(&quot;#SvgjsLinearGradient1230&quot;)"/><path d="M274.2857142857143,-1080C271.53434016889867,-973.3809935364055,251.60431360627481,-640.6110233482392,257.7774695848205,-440.2859612184331C263.9506255633662,-239.96089908862703,323.9279822143037,-82.49366741593869,311.32465015698835,121.95037277883651C298.721318099673,326.3944129736117,185.35478837574365,572.6718508004848,182.15747724092853,786.378279950218C178.9601661061134,1000.0847090999513,276.7860771739666,1175.2519943356056,292.14078334809756,1404.188947677236C307.4954895222285,1633.1259010188664,277.26155912944483,2034.0314912795393,274.2857142857143,2160L 1920 2160 L 1920 -1080 Z" fill="url(&quot;#SvgjsLinearGradient1231&quot;)"/><path d="M548.5714285714286,-1080C543.0436027459001,-1020.1813891009376,498.12115225202183,-887.8024184703157,515.4044736182577,-721.0883346056255C532.6877949844936,-554.3742507409353,662.3729775376386,-263.9757594805697,652.2713567688438,-79.7154968118584C642.169736000049,104.5447658568529,485.5365272039613,234.87452647171386,454.79474900548905,384.4732414066424C424.0529708070168,534.071956341571,461.77100227676755,684.1164341855861,467.82068757801005,817.8767927977127C473.87037287925256,951.6371514098394,472.24776903329155,1041.5645513767959,491.0928608129442,1187.0353930794024C509.93795259259684,1332.506234782009,571.3114769628452,1528.541075193253,580.8912382559259,1690.7018430133526C590.4709995490067,1852.8626108334522,553.9580635188448,2081.7836405022254,548.5714285714286,2160L 1920 2160 L 1920 -1080 Z" fill="url(&quot;#SvgjsLinearGradient1232&quot;)"/><path d="M822.8571428571428,-1080C840.3007031031864,-994.2217685457503,944.2549190187837,-747.8226962042368,927.518504333404,-565.3306112745015C910.7820896480245,-382.83852634476625,748.2356798143628,-164.17134162321167,722.4386547448653,14.95250957841158C696.6416296753678,194.0763607800348,738.8356285192267,331.8248840497854,772.7363539164187,509.4124959352379C806.6370793136107,687.0001078206905,914.4756111052193,911.6675879565834,925.8430071280171,1080.4781808911268C937.210403150815,1249.2887738256704,858.1050407650184,1342.3557503576867,840.940730053206,1522.2760535424989C823.7764193413936,1702.196356727311,825.8710740564867,2053.7126755904164,822.8571428571428,2160L 1920 2160 L 1920 -1080 Z" fill="url(&quot;#SvgjsLinearGradient1233&quot;)"/><path d="M1097.142857142857,-1080C1109.7277171998808,-975.1144990960227,1175.6467249798936,-684.7112268849021,1172.6520174849998,-450.6869945761361C1169.657309990106,-216.66276226737017,1100.7556762479326,112.61796002463333,1079.1746121734939,324.14539385259553C1057.5935480990552,535.6728276805577,1030.4686038839006,620.380788622835,1043.1656330383673,818.477608391637C1055.862662192834,1016.574428160439,1146.3605830828785,1289.1392471973468,1155.3567871002936,1512.7263124654073C1164.3529911177086,1736.3133777334679,1106.84517880243,2052.121052077568,1097.142857142857,2160L 1920 2160 L 1920 -1080 Z" fill="url(&quot;#SvgjsLinearGradient1234&quot;)"/><path d="M1371.4285714285716,-1080C1353.3967607571572,-1005.5155947395002,1246.9042157580163,-770.153720111584,1263.2377074000844,-633.0935684370011C1279.5711990421526,-496.03341676241814,1456.6475181486474,-397.96895571954826,1469.4295212809807,-257.6390899525025C1482.211524413314,-117.30922418545677,1349.2814015281358,89.05526464422103,1339.9297261940842,208.88562616527324C1330.5780508600326,328.71598768632543,1401.0321102116854,329.6695331045986,1413.3194692766706,461.3430791738107C1425.6068283416557,593.0166252430228,1411.4031470306222,849.1397355829905,1413.6538805839946,998.9269025805456C1415.904614137367,1148.7140695781009,1426.7757142036153,1223.6204388676365,1426.8238705969043,1360.0660811591415C1426.8720269901933,1496.5117234506465,1423.1753688051178,1684.2784365227656,1413.942818943729,1817.6007563295752C1404.7102690823401,1950.923076136385,1378.5142793477644,2102.9334593882627,1371.4285714285716,2160L 1920 2160 L 1920 -1080 Z" fill="url(&quot;#SvgjsLinearGradient1235&quot;)"/><path d="M1645.7142857142856,-1080C1641.789021840879,-934.4680325088269,1608.7685003844642,-483.97995882516125,1622.1627024738468,-206.80819505296148C1635.5569045632294,70.36356871923829,1712.251012378312,310.0664316646266,1726.0794982505809,583.0305826331985C1739.9079841228497,855.9947336017703,1718.527819796843,1168.1484745306695,1705.1336177074604,1430.9767107584698C1691.7394156180778,1693.8049469862701,1655.617507713148,2038.496118459745,1645.7142857142856,2160L 1920 2160 L 1920 -1080 Z" fill="url(&quot;#SvgjsLinearGradient1236&quot;)"/></g><defs><linearGradient x1="0.1" y1="0" x2="0" y2="1" id="SvgjsLinearGradient1230"><stop stop-color="#a4f1ff" offset="0"/><stop stop-color="#a4fffe" offset="0"/></linearGradient><linearGradient x1="0.1" y1="0" x2="0" y2="1" id="SvgjsLinearGradient1231"><stop stop-color="#aef3ff" offset="0"/><stop stop-color="#aefffd" offset="0.14285714285714285"/></linearGradient><linearGradient x1="0.1" y1="0" x2="0" y2="1" id="SvgjsLinearGradient1232"><stop stop-color="#b8f4ff" offset="0"/><stop stop-color="#b8fffe" offset="0.2857142857142857"/></linearGradient><linearGradient x1="0.1" y1="0" x2="0" y2="1" id="SvgjsLinearGradient1233"><stop stop-color="#c2f6ff" offset="0"/><stop stop-color="#c2fffe" offset="0.42857142857142855"/></linearGradient><linearGradient x1="0.1" y1="0" x2="0" y2="1" id="SvgjsLinearGradient1234"><stop stop-color="#ccf7ff" offset="0"/><stop stop-color="#ccfffe" offset="0.5714285714285714"/></linearGradient><linearGradient x1="0.1" y1="0" x2="0" y2="1" id="SvgjsLinearGradient1235"><stop stop-color="#d7f9ff" offset="0"/><stop stop-color="#d7fffe" offset="0.7142857142857143"/></linearGradient><linearGradient x1="0.1" y1="0" x2="0" y2="1" id="SvgjsLinearGradient1236"><stop stop-color="#e1faff" offset="0"/><stop stop-color="#e1ffff" offset="0.8571428571428571"/></linearGradient></defs></svg>