<svg xmlns="http://www.w3.org/2000/svg" version="1.1" xmlns:xlink="http://www.w3.org/1999/xlink" xmlns:svgjs="http://svgjs.dev/svgjs" viewBox="0 0 1920 1080"><rect width="1920" height="1080" fill="#bf2f00"></rect><g transform="matrix(0.8131727983645296,0.8131727983645295,-0.8131727983645295,0.8131727983645296,610.0262167407627,-643.0185054685153)"><path d="M0,-1080C-14.96467412440442,-975.0029000419327,-83.52525304711527,-649.9433604702001,-89.78804474642652,-450.01740025159563C-96.05083644573777,-250.09144003299116,-49.411547561001996,-88.7771889478735,-37.57675019586749,119.55576131162684C-25.741952830732984,327.88871157112715,-11.062037550594919,554.9254345007334,-18.779260555619487,799.9803013054063C-26.496483560644055,1045.0351681100792,-87.00996498528482,1363.215012357232,-83.8800882260149,1589.8849621396641C-80.75021146674499,1816.5549119220964,-13.980014704335817,2064.9808270232775,0,2160L 1920 2160 L 1920 -1080 Z" fill="url(&quot;#SvgjsLinearGradient1130&quot;)"></path><path d="M320,-1080C322.05013168413564,-1000.1990211701033,339.7517874638485,-781.9201549407816,332.30079010481376,-601.1941270206194C324.84979274577904,-420.46809910045715,279.70876733622373,-186.5927071729564,275.29401584579153,4.3561675209733295C270.87926435535934,195.30504221490304,282.5761500798916,358.79379531512427,305.81228116222053,544.499121142959C329.04841224454947,730.2044469707937,395.76467556982556,943.8498936576955,414.7108023397653,1118.5881224879815C433.656929109705,1293.3263513182676,435.274175505153,1419.3598478726722,419.48904178185876,1592.9284941246751C403.70390805856454,1766.497140376678,336.5815069636431,2065.4880823541125,320,2160L 1920 2160 L 1920 -1080 Z" fill="url(&quot;#SvgjsLinearGradient1131&quot;)"></path><path d="M640,-1080C638.8294487523034,-988.6881837188168,624.1153876199282,-722.2829186483757,632.9766925138204,-532.1291023129013C641.8379974077125,-341.9752859774269,675.1164214822433,-107.01688803415522,693.1678293633524,60.92289801284667C711.2192372444616,228.86268405984856,765.0782246662039,289.7089099143604,741.2851398004755,475.5096139691099C717.492054934747,661.3103180238595,556.8351617121257,974.9185086667053,550.4093201689817,1175.7271223413438C543.9834786258377,1376.5357360159824,687.798310569775,1516.315816407165,702.7300905416114,1680.361296016941C717.6618705134478,1844.406775626717,650.4550150902686,2080.0602160028234,640,2160L 1920 2160 L 1920 -1080 Z" fill="url(&quot;#SvgjsLinearGradient1132&quot;)"></path><path d="M960,-1080C942.5961727899011,-998.193237546092,838.8976981606986,-728.4249982646674,855.5770367394064,-589.1594252765516C872.2563753181141,-449.8938522884358,1035.4075513078797,-400.6634378734841,1060.0760314722465,-244.40656207130513C1084.7445116366134,-88.14968626912614,1028.1757054866275,162.89224074753474,1003.5879177256077,348.38182953652233C979.0001299645878,533.8714183255099,925.6717667680898,706.076174786516,912.5493049061276,868.5309706626203C899.4268430441655,1030.9857665387246,931.3943664016492,1196.0377505783376,924.8531465538349,1323.1106047931485C918.3119267060206,1450.1834590079593,867.4441769115473,1491.4865300836766,873.3019858192415,1630.968095951485C879.1597947269357,1770.4496618192936,945.5503309698736,2071.828015991914,960,2160L 1920 2160 L 1920 -1080 Z" fill="url(&quot;#SvgjsLinearGradient1133&quot;)"></path><path d="M1280,-1080C1268.9508615925943,-1002.5085766944288,1224.623121867677,-755.9289746516854,1213.705169555565,-615.0514601665732C1202.787217243453,-474.17394568146096,1217.9478274118285,-381.5245780432259,1214.4922861273283,-234.7349130893269C1211.036744842828,-87.9452481354279,1194.568336069994,101.32106373946723,1192.9719218485636,265.686529556821C1191.3755076271332,430.0519953741747,1188.720754897112,592.7936645455745,1204.9138007987453,751.4578818147954C1221.1068467003786,910.1220990840163,1265.5944239298965,1060.7076950524538,1290.1301972583633,1217.6718331721463C1314.66597058683,1374.6359712918388,1353.8168069792735,1536.1880160616408,1352.1284407695462,1693.2427105329498C1350.4400745598189,1850.2974050042587,1292.0214067949244,2082.207118422158,1280,2160L 1920 2160 L 1920 -1080 Z" fill="url(&quot;#SvgjsLinearGradient1134&quot;)"></path><path d="M1600,-1080C1611.2993488072707,-986.3492059962757,1678.2898266725167,-688.8896101734357,1667.7960928436237,-518.0952359776545C1657.3023590147307,-347.3008617818733,1554.2461799561042,-188.23553540820328,1537.0375970266414,-55.233754825312616C1519.8290140971785,77.76802575757804,1568.3209955152568,141.86505161894144,1564.5445952668463,279.9154475196895C1560.7681950184358,417.9658434204376,1495.7858625282242,619.0269539860486,1514.3791955361785,773.0686205791758C1532.9725285441327,927.110287172303,1670.6042606831647,1063.3307842789357,1676.104593314571,1204.1654470784524C1681.6049259459774,1345.0001098779692,1560.0652902103777,1458.7708385560186,1547.3811913246159,1618.0765973762766C1534.697092438854,1777.3823561965346,1591.2301985541026,2069.679432896046,1600,2160L 1920 2160 L 1920 -1080 Z" fill="url(&quot;#SvgjsLinearGradient1135&quot;)"></path></g><defs><linearGradient x1="0.1" y1="0" x2="0" y2="1" id="SvgjsLinearGradient1130"><stop stop-color="#bf2f00" offset="0"></stop><stop stop-color="#bf0f00" offset="0"></stop></linearGradient><linearGradient x1="0.1" y1="0" x2="0" y2="1" id="SvgjsLinearGradient1131"><stop stop-color="#a32800" offset="0"></stop><stop stop-color="#a30d00" offset="0.16666666666666666"></stop></linearGradient><linearGradient x1="0.1" y1="0" x2="0" y2="1" id="SvgjsLinearGradient1132"><stop stop-color="#862100" offset="0"></stop><stop stop-color="#860b00" offset="0.3333333333333333"></stop></linearGradient><linearGradient x1="0.1" y1="0" x2="0" y2="1" id="SvgjsLinearGradient1133"><stop stop-color="#6a1a00" offset="0"></stop><stop stop-color="#6a0800" offset="0.5"></stop></linearGradient><linearGradient x1="0.1" y1="0" x2="0" y2="1" id="SvgjsLinearGradient1134"><stop stop-color="#4e1300" offset="0"></stop><stop stop-color="#4e0600" offset="0.6666666666666666"></stop></linearGradient><linearGradient x1="0.1" y1="0" x2="0" y2="1" id="SvgjsLinearGradient1135"><stop stop-color="#320c00" offset="0"></stop><stop stop-color="#320400" offset="0.8333333333333334"></stop></linearGradient></defs></svg>