<svg xmlns="http://www.w3.org/2000/svg" version="1.1" xmlns:xlink="http://www.w3.org/1999/xlink" xmlns:svgjs="http://svgjs.dev/svgjs" viewBox="0 0 1920 1080"><rect width="1920" height="1080" fill="#f08423"/><g transform="matrix(7.04171909509728e-17,1.15,-1.15,7.04171909509728e-17,1542.5641326904297,-519.7987525939941)"><path d="M0,-1080C3.5647618170483426,-959.6986258897639,15.05115112060415,-577.4689314579437,21.388570902290056,-358.191755338583C27.72599068397596,-138.91457921922236,50.30040626744623,27.099626955071784,38.02451869011543,235.66305671616368C25.74863111278463,444.22648647725555,-33.60603131647292,666.881309207721,-52.266754561694746,893.1888232279684C-70.92747780691657,1119.496337248216,-82.65094654149797,1382.3729447089768,-73.93982078121552,1593.5081408376486C-65.22869502093306,1804.6433369663205,-12.32330346353592,2065.584690139608,0,2160L 1920 2160 L 1920 -1080 Z" fill="url(&quot;#SvgjsLinearGradient1716&quot;)"/><path d="M213.33333333333331,-1080C213.7515939192764,-955.7699423675806,214.62942974562338,-566.0730397384157,215.84289684899184,-334.6196542054836C217.0563639523603,-103.1662686725515,210.4795577589938,100.56677939118822,220.614135953544,308.7203131975924C230.74871414809422,516.8738470039966,269.0464237988882,697.6963120956663,276.6503660162931,914.3015486329416C284.254308233698,1130.9067851702168,276.7906280384666,1400.735323860068,266.2377892579733,1608.3517324212444C255.68495047748002,1815.9681409824207,222.15074265410664,2068.0586220702075,213.33333333333331,2160L 1920 2160 L 1920 -1080 Z" fill="url(&quot;#SvgjsLinearGradient1717&quot;)"/><path d="M426.66666666666663,-1080C430.2815153041634,-1008.1134375505442,456.09472718006236,-795.9752783739249,448.3557584916474,-648.6806253032653C440.61678980323245,-501.3859722326057,390.41433968157816,-358.08833523977535,380.2328545361769,-196.23208157604245C370.0513693907756,-34.375827912309575,367.6438772190353,145.1692894079501,387.2668476192398,322.45689667913194C406.8898180194443,499.7445039503138,474.9943333267846,709.510893785574,497.970676937404,867.4935620510487C520.9470205480234,1025.4762303165235,543.9631458748557,1135.8848547781254,525.1249092829562,1270.3529062719801C506.28667269105665,1404.820957765835,401.35096448872173,1526.0273553928414,384.9412573860068,1674.301871014178C368.53155028329184,1822.5763866355146,419.71243178655664,2079.0503118356964,426.66666666666663,2160L 1920 2160 L 1920 -1080 Z" fill="url(&quot;#SvgjsLinearGradient1718&quot;)"/><path d="M640,-1080C646.589115580285,-953.0213353356921,686.8833508677412,-601.6782192710427,679.5346934817098,-318.12801201415283C672.1860360956784,-34.577804757262925,614.2171160393052,353.49869281606294,595.908055683812,621.3012435413393C577.5989953283188,889.1037942666158,562.3316739627189,1032.2374995943953,569.6803313487503,1288.6872923375054C577.0289887347817,1545.1370850806154,628.2800552247917,2014.7812153895843,640,2160L 1920 2160 L 1920 -1080 Z" fill="url(&quot;#SvgjsLinearGradient1719&quot;)"/><path d="M853.3333333333333,-1080C862.1610174996476,-986.9809458072287,892.4777576757823,-661.4595127246359,906.2994383312196,-521.8856748433724C920.1211189866568,-382.3118369621088,946.6416317682161,-396.32396335831686,936.2634172659566,-242.55697271241849C925.8852027636971,-88.78998206652008,851.2581078463155,244.10846413585912,844.0301513176624,400.7162690320181C836.8021947890094,557.3240739281771,902.6343663145038,548.9924753913888,892.8956780940381,697.0898566645352C883.1569898735723,845.1872379376816,785.2339670402831,1134.4061228232636,785.5980219948678,1289.3005566708966C785.9620769494526,1444.1949905185297,883.7907892651355,1481.3398858621492,895.0800078215464,1626.4564597503331C906.3692263779573,1771.573033638517,860.2911124147021,2071.0760766250555,853.3333333333333,2160L 1920 2160 L 1920 -1080 Z" fill="url(&quot;#SvgjsLinearGradient1720&quot;)"/><path d="M1066.6666666666667,-1080C1081.2880309218556,-994.1561626736628,1159.274871842608,-742.1642749186954,1154.3948521978,-564.936976041977C1149.514832552992,-387.70967716525865,1067.8433399308215,-215.03220825030309,1037.386548797818,-16.636206739689626C1006.9297576648146,181.75979477092386,964.9783871640595,455.2126776470611,971.654105399779,625.4390330217038C978.3298236354985,795.6653883963465,1070.7573891518405,847.8459419498404,1077.4408582121353,1004.7219255081665C1084.12432727243,1161.5979090664925,1013.5506183524599,1374.1485886230212,1011.7549197615484,1566.69493437166C1009.959221170637,1759.241280120299,1057.514708849147,2061.1158223952766,1066.6666666666667,2160L 1920 2160 L 1920 -1080 Z" fill="url(&quot;#SvgjsLinearGradient1721&quot;)"/><path d="M1280,-1080C1269.7481448240128,-1006.2096851710992,1234.3556606799852,-797.3540568989687,1218.488868944076,-637.2581110265954C1202.622077208167,-477.1621651542222,1171.6040155355238,-281.56836280241765,1184.7992495845454,-119.42432476576064C1197.994483633567,42.719713270896364,1276.264336663254,195.0080812715761,1297.6602732382053,335.60611719334656C1319.0562098131566,476.20415311511704,1314.450411943128,577.3801974818432,1313.174869034253,724.1638907648622C1311.8993261253781,870.9475840478813,1298.3292821926877,1047.817020724281,1290.0070157849557,1216.3082768914605C1281.6847493772236,1384.79953305864,1264.9091065520201,1577.8294739165156,1263.241270587861,1735.1114277679387C1261.5734346237018,1892.393381619362,1277.20687843131,2089.1852379613233,1280,2160L 1920 2160 L 1920 -1080 Z" fill="url(&quot;#SvgjsLinearGradient1722&quot;)"/><path d="M1493.3333333333333,-1080C1508.7871441954749,-1001.4724653911904,1589.5100213918831,-747.1720667741823,1586.0561985061831,-608.8347923471426C1582.6023756204831,-470.49751792010295,1476.2132094001427,-373.17148343637183,1472.6103960191328,-249.97635343776187C1469.007582638123,-126.7812234391519,1575.7080131776902,-3.138056288793422,1564.4393182201238,130.33598764451727C1553.1706232625575,263.810031577828,1426.2919768980207,424.34400140381666,1404.9982262737353,550.8679101621024C1383.70447564945,677.3918189203881,1427.4789164625254,771.5825979117433,1436.6768144744115,889.4794401942316C1445.8747124862975,1007.37628247672,1448.9626122935608,1104.5149333157729,1460.1856143450525,1258.2489638570323C1471.4086163965442,1411.9829943982918,1498.4902069519817,1661.591784084627,1504.0148267833617,1811.8836234417884C1509.5394466147418,1962.1754627989496,1495.1135822416713,2101.980603906965,1493.3333333333333,2160L 1920 2160 L 1920 -1080 Z" fill="url(&quot;#SvgjsLinearGradient1723&quot;)"/><path d="M1706.6666666666665,-1080C1693.9047184282558,-999.0275697662628,1646.3443396877296,-764.4747237134417,1630.0949772362019,-594.1654185975768C1613.8456147846741,-423.856113481712,1610.4407873118384,-230.8616355484811,1609.1704919574995,-58.144169304811136C1607.9001966031606,114.57329693885885,1607.560797578003,247.39903488556467,1622.4732051101676,442.13937886444296C1637.385612642332,636.8797228433212,1671.841085647119,922.3112685457547,1698.6449371504866,1110.2978945684586C1725.4487886538543,1298.2845205911624,1781.9593592110102,1395.1087840954087,1783.2963141303735,1570.0591350006657C1784.6332690497368,1745.0094859059227,1719.4382745772843,2061.676522500111,1706.6666666666665,2160L 1920 2160 L 1920 -1080 Z" fill="url(&quot;#SvgjsLinearGradient1724&quot;)"/></g><defs><linearGradient x1="0.1" y1="0" x2="0" y2="1" id="SvgjsLinearGradient1716"><stop stop-color="#f08423" offset="0"/><stop stop-color="#f06223" offset="0"/></linearGradient><linearGradient x1="0.1" y1="0" x2="0" y2="1" id="SvgjsLinearGradient1717"><stop stop-color="#e2730f" offset="0"/><stop stop-color="#e2500f" offset="0.1111111111111111"/></linearGradient><linearGradient x1="0.1" y1="0" x2="0" y2="1" id="SvgjsLinearGradient1718"><stop stop-color="#c2630d" offset="0"/><stop stop-color="#c2450d" offset="0.2222222222222222"/></linearGradient><linearGradient x1="0.1" y1="0" x2="0" y2="1" id="SvgjsLinearGradient1719"><stop stop-color="#a2520b" offset="0"/><stop stop-color="#a2390b" offset="0.3333333333333333"/></linearGradient><linearGradient x1="0.1" y1="0" x2="0" y2="1" id="SvgjsLinearGradient1720"><stop stop-color="#824209" offset="0"/><stop stop-color="#822e09" offset="0.4444444444444444"/></linearGradient><linearGradient x1="0.1" y1="0" x2="0" y2="1" id="SvgjsLinearGradient1721"><stop stop-color="#623207" offset="0"/><stop stop-color="#622307" offset="0.5555555555555556"/></linearGradient><linearGradient x1="0.1" y1="0" x2="0" y2="1" id="SvgjsLinearGradient1722"><stop stop-color="#422205" offset="0"/><stop stop-color="#421805" offset="0.6666666666666666"/></linearGradient><linearGradient x1="0.1" y1="0" x2="0" y2="1" id="SvgjsLinearGradient1723"><stop stop-color="#221102" offset="0"/><stop stop-color="#220c02" offset="0.7777777777777778"/></linearGradient><linearGradient x1="0.1" y1="0" x2="0" y2="1" id="SvgjsLinearGradient1724"><stop stop-color="#020100" offset="0"/><stop stop-color="#020100" offset="0.8888888888888888"/></linearGradient></defs></svg>